# xmcd
#
# Track frame offsets:
#	150
#	11270
#	26945
#	39372
#	51087
#	69227
#	84240
#	95620
#	111230
#	123530
#	139562
#
# Disc length: 2042 seconds
#
# Revision: 2
# Processed by: cddbd v1.5.2PL0 Copyright (c) Steve Scherf et al.
# Submitted via: EasyCDDAExtractor 4.6.0.1
#
DISCID=8707f80b
DTITLE=Alan Jackson - When Somebody Loves You
DYEAR=2000
DGENRE=Country
TTITLE0=Meat And Potato Man
TTITLE1=When Somebody Loves You
TTITLE2=The Thrill Is Back
TTITLE3=Www.Memory
TTITLE4=Where I Come From
TTITLE5=I Still Love You
TTITLE6=Life Or Love
TTITLE7=A Love Like That
TTITLE8=It's Alright To Be A Redneck
TTITLE9=Maybe I Should Stay Here
TTITLE10=Three Minute Positive Not Too Country Up-Tempo Love Song
EXTD=YEAR: 2000
EXTT0=
EXTT1=
EXTT2=
EXTT3=
EXTT4=
EXTT5=
EXTT6=
EXTT7=
EXTT8=
EXTT9=
EXTT10=
PLAYORDER=
